# xmcd
#
# Track frame offsets:
#   150
#   15939
#   30747
#   46225
#   65336
#   83336
#   104441
#   125495
#   142105
#   158410
#   174917
#
# Disc length: 2513 seconds
#
# Revision: 0
# Processed by: cddbd v1.5.2PL0 Copyright (c) Steve Scherf et al.
# Submitted via: GXTranscoder 2.0.1939
#
DISCID=7b09cf0b
DTITLE=Katie Melua - Piece by Piece
DYEAR=2005
DGENRE=Pop
TTITLE0=Shy Boy
TTITLE1=Nine Million Bicycles
TTITLE2=Piece By Piece
TTITLE3=Halfway up the Hindu Kush
TTITLE4=Blues in the Night
TTITLE5=Spider's Web
TTITLE6=Blue Shoes
TTITLE7=On the Road Again
TTITLE8=Thankyou, Stars
TTITLE9=Just like Heaven
TTITLE10=I Cried For You
EXTD=
EXTT0=
EXTT1=
EXTT2=
EXTT3=
EXTT4=
EXTT5=
EXTT6=
EXTT7=
EXTT8=
EXTT9=
EXTT10=
PLAYORDER=
